<?xml version="1.0" encoding="utf-8"?>
<!-- Generator: Adobe Illustrator 15.1.0, SVG Export Plug-In . SVG Version: 6.00 Build 0)  -->
<!DOCTYPE svg PUBLIC "-//W3C//DTD SVG 1.1//EN" "http://www.w3.org/Graphics/SVG/1.1/DTD/svg11.dtd">
<svg version="1.1" id="Layer_2" xmlns="http://www.w3.org/2000/svg" xmlns:xlink="http://www.w3.org/1999/xlink" x="0px" y="0px"
	 width="636px" height="550px" viewBox="0 0 636 550" enable-background="new 0 0 636 550" xml:space="preserve">
<path fill="#7D59A4" stroke="#231F20" stroke-width="3" stroke-miterlimit="10" d="M300.363,229.308
	c0,0-33.363-92.308-108.594-147.055C140.851,45.199,58.506,40.692,49.714,61.571s18.877,38.537,19.724,43.125
	C73,124,79.944,119.318,82.667,126.334c3.79,9.765-1.621,18.225,0.667,23c11.333,23.667,5.378,13.219,4.333,32
	C87.513,184.107,88,212.667,100.84,234.1c9.058,15.121,19.86,21.059,58.863,18.9c4.13-0.229-14.157,6.019-29.702,13.333
	c-13.406,6.309-19.621,8.643-24.144,13.821s1.311,6.508-1.19,13.179c-1.66,4.429-8.195,7.683-6.333,13.667
	c1.632,5.246,11.333,8.667,6.623,23.802c-4.124,13.248,9.915,14.794,8.977,20.95c-5.334,35,5.401,15.248,8.734,40.248
	c1.85,13.878-8.083,28.79,16.667,31.333c6.184,0.636,12.578,19.261,12.578,19.261S177,454,188.334,453.333
	c8.724-0.514,27.761-6.545,53.333-28.333c9.323-7.943,17.744-21.18,29.025-36.055c23.975-31.612,32.133-46.975,32.133-46.975
	s4.509,32.362,11.175,1.695c1.104-5.079-0.666-3.333,7.001,8.334c5.27,8.02,16.034,24.231,25.516,34.747
	c17.243,19.122,24.104,53.723,89.011,65.684c6.322,1.165,14.23-7.94,31.868-9.64c4.017-0.387,4.37-8.672,10.104-16.041
	c4.539-5.833,14.395-10.431,18.467-14.729c2.784-2.938-0.027-15.361,2.033-24.271s8-11.75,7.857-18.585
	c-0.36-17.262,1.803-21.83,7.893-35.415c3.25-7.25-4.75-9.75,1.947-22.23c5.697-10.617,4.188-18.218-1.197-21.27
	c-7.5-4.25-0.5-9.25-5.346-13.195c-25.618-20.858-34.404-11.805-31.869-17.78c2.146-5.058,58.721,7.75,65.935-53.846
	c2.479-21.166,5.912-23.297,4.113-34.095c-1.284-7.706,10.479-14.675,10.517-21.432c0.036-6.756,2.056-16.73,6.15-19.152
	c13.667-8.083,7.14-21.793,11.507-26.033C602,79,594.5,49.151,567.594,50.191c-111.863,4.326-172.928,58.477-209.927,113.476
	C318.489,221.904,320.638,231,320.638,231S314,196,300.363,229.308z"/>
<polyline fill="none" stroke="#231F20" stroke-width="3" stroke-miterlimit="10" points="341,142 334,160.5 324.5,179.5 316.5,199 
	313.071,215.345 "/>
<polyline fill="none" stroke="#231F20" stroke-width="3" stroke-miterlimit="10" points="292.5,136.5 292.5,147.5 296.5,165.5 
	300,183 304,200.5 308.673,215 "/>
</svg>
