<?xml version="1.0" standalone="no"?>
<!DOCTYPE svg PUBLIC "-//W3C//DTD SVG 20010904//EN"
 "http://www.w3.org/TR/2001/REC-SVG-20010904/DTD/svg10.dtd">
<svg version="1.0" xmlns="http://www.w3.org/2000/svg"
 width="500.000000pt" height="373.000000pt" viewBox="0 0 500.000000 373.000000"
 preserveAspectRatio="xMidYMid meet">
<metadata>
Created by potrace 1.12, written by Peter Selinger 2001-2015
</metadata>
<g transform="translate(0.000000,373.000000) scale(0.100000,-0.100000)"
fill="#000000" stroke="none">
<path d="M200 3714 c-147 -32 -206 -93 -197 -206 6 -73 40 -134 126 -229 45
-48 71 -86 76 -109 11 -53 33 -89 78 -131 l42 -38 0 -108 c1 -97 3 -114 28
-163 33 -70 34 -79 18 -167 -30 -167 44 -466 149 -598 70 -88 153 -122 330
-133 l113 -7 -84 -34 c-159 -65 -308 -143 -339 -177 -26 -31 -29 -38 -23 -84
5 -42 2 -54 -14 -73 -49 -53 -55 -101 -19 -144 48 -58 56 -101 37 -187 -12
-48 -1 -80 42 -124 l32 -33 0 -114 c0 -110 1 -114 27 -142 50 -52 62 -96 60
-221 -1 -84 2 -121 13 -142 16 -31 80 -70 114 -70 47 0 72 -23 109 -102 l37
-78 70 -29 c96 -40 210 -71 266 -71 121 0 347 119 513 271 61 56 287 352 439
574 48 72 91 128 95 125 4 -2 12 -20 19 -39 24 -71 58 -66 86 13 7 21 15 38
19 39 3 1 42 -52 86 -118 44 -66 115 -163 157 -215 43 -52 100 -129 128 -170
127 -190 219 -278 366 -354 101 -52 259 -104 340 -112 51 -6 66 -3 138 29 63
28 166 57 200 57 2 0 16 26 30 58 39 86 56 105 143 166 49 35 81 65 84 79 3
12 7 67 8 122 4 93 6 104 40 165 33 60 36 73 40 165 4 87 10 112 43 190 36 86
37 92 25 142 -11 49 -10 57 17 115 39 87 38 142 -3 201 -17 24 -37 60 -43 80
-17 52 -150 148 -246 177 -65 20 -61 27 22 34 294 26 459 159 508 408 37 188
55 311 55 371 0 54 6 78 35 139 33 68 35 77 29 133 -11 90 -9 101 30 147 20
23 48 66 63 96 15 30 57 85 98 126 161 162 188 336 70 445 -61 56 -102 65
-267 57 -697 -30 -1263 -319 -1690 -862 -134 -169 -362 -529 -423 -666 -17
-37 -32 -68 -35 -68 -3 0 -16 20 -28 44 -22 41 -23 48 -12 103 14 72 59 190
118 308 54 106 122 277 115 288 -11 18 -23 1 -53 -80 -18 -49 -55 -132 -82
-186 -64 -129 -104 -231 -124 -317 -8 -38 -20 -70 -24 -70 -24 0 -137 479
-149 629 -4 46 -11 76 -18 79 -24 7 -14 -104 23 -282 34 -164 70 -316 95 -401
11 -37 9 -43 -17 -83 l-28 -42 -81 167 c-277 572 -674 1035 -1069 1247 -293
158 -731 243 -976 190z"/>
</g>
</svg>
