<svg xmlns="http://www.w3.org/2000/svg" xmlns:xlink="http://www.w3.org/1999/xlink" version="1.1" id="Layer_1" x="0px" y="0px" width="216.667px" height="197.417px" viewBox="0 0 216.667 197.417" enable-background="new 0 0 216.667 197.417" xml:space="preserve">
<style>
	.style0{
		stroke:	#080708;
		stroke-miterlimit:	10;
		fill:	#79429A;
	}
</style><path d="M194.505 102.638c0.002-0.047 0.007-0.089 0.007-0.137 l-35.251-32.969V35.427c0-5.406-3.443-9.789-7.691-9.789h-12.178c-4.248 0-7.691 4.383-7.691 9.789v8.331l-11.1-10.38 c-12.455-10.784-13.576-10.784-24.91 0l-73.91 69.124c0 0 0 0 0 0.072c-0.721 0.103-1.285 0.955-1.285 2 c0 1.1 0.6 2 1.4 2.026h24.21v60.037c0 4.2 3.4 7.7 7.7 7.691h29.803c4.248 0 7.691-3.443 7.691-18.267v-14.741 v-6.089c0-4.247 3.443-7.691 7.691-7.691h17.946c4.248 0 7.7 3.4 7.7 7.691v6.089v14.741c0 14.8 3.4 18.3 7.7 18.3 h29.804c4.247 0 7.69-3.443 7.69-7.691v-60.037h24.283c0.789 0 1.428-0.907 1.428-2.026 C195.547 103.7 195.1 102.9 194.5 102.638z" class="style0"/>
</svg>
