<svg xmlns="http://www.w3.org/2000/svg" xmlns:xlink="http://www.w3.org/1999/xlink" version="1.1" x="0" y="0" width="612" height="603.37" viewBox="0 0 612 603.37" enable-background="new 0 0 612 603.372" xml:space="preserve">
  <g id="Layer_1">
    <line fill="none" stroke="#000000" stroke-width="3" stroke-miterlimit="10" x1="298.35" y1="297.88" x2="298.35" y2="547.88"/>
    <line fill="none" stroke="#000000" stroke-width="3" stroke-miterlimit="10" x1="514.86" y1="172.88" x2="298.35" y2="297.88"/>
    <path fill="#C48A9A" stroke="#000000" stroke-width="3" stroke-miterlimit="10" d="M298.35 297.88L298.35 297.88 82.38 173.19c-21.22 36.68-33.38 79.27-33.38 124.69 0 137.71 111.64 249.35 249.35 249.35h0L298.35 297.88z"/>
    <path fill="#D7D494" stroke="#000000" stroke-width="3" stroke-miterlimit="10" d="M298 297.88L298 297.88l215.98-124.69c21.22 36.68 33.38 79.27 33.38 124.69 0 137.71-111.64 249.35-249.35 249.35h0L298 297.88z"/>
    <path fill="#75A9C6" stroke="#000000" stroke-width="3" stroke-miterlimit="10" d="M297.98 298.34L297.98 298.34l215.98-124.69c-21.15-36.72-51.96-68.54-91.3-91.25C303.4 13.54 150.9 54.41 82.04 173.67l0 0L297.98 298.34z"/>
  </g>
  <g id="Layer_2">
    <circle fill="#EAE6DA" stroke="#000000" stroke-width="4" stroke-miterlimit="10" cx="298.35" cy="297.88" r="150.14"/>
  </g>
  <g id="text">
    <rect x="196" y="80" fill="none" width="292" height="91"/>
    <text transform="matrix(1 0 0 1 196 117.5669)" font-family="'SignPainter-HouseScript'" font-size="60">
      Honeymoon
    </text>
    <rect x="332" y="350" transform="matrix(-0.5 0.866 -0.866 -0.5 1003.5374 207.6063)" fill="none" width="219.67" height="87"/>
    <text transform="matrix(-0.6691 0.7431 -0.7431 -0.6691 497.0332 300.0059)">
      <tspan x="0" y="0" font-family="'BirchStd'" font-size="60" letter-spacing="12">
        T
      </tspan>
      <tspan x="31.04" y="-6.26" font-family="'BirchStd'" font-size="60" letter-spacing="12">
        e
      </tspan>
      <tspan x="58.93" y="-12.4" font-family="'BirchStd'" font-size="60" letter-spacing="12">
        n
      </tspan>
      <tspan x="88.9" y="-18.34" font-family="'BirchStd'" font-size="60" letter-spacing="12">
        s
      </tspan>
      <tspan x="114.99" y="-23.34" font-family="'BirchStd'" font-size="60" letter-spacing="12">
        i
      </tspan>
      <tspan x="135.86" y="-28.63" font-family="'BirchStd'" font-size="60" letter-spacing="12">
        o
      </tspan>
      <tspan x="164.63" y="-34.87" font-family="'BirchStd'" font-size="60" letter-spacing="12">
        n
      </tspan>
    </text>
    <rect x="13.91" y="304.1" transform="matrix(-0.5 -0.866 0.866 -0.5 -69.5502 680.5234)" fill="none" width="295.53" height="112.48"/>
    <text transform="matrix(-0.5878 -0.809 0.9223 -0.6701 228.7197 485.1162)" font-family="'Herculanum'" font-size="59" letter-spacing="1">
      E
    </text>
    <text transform="matrix(-0.5878 -0.809 0.8333 -0.6054 202.0869 460.7188)" font-family="'Herculanum'" font-size="48" letter-spacing="1">
      x
    </text>
    <text transform="matrix(-0.5878 -0.809 0.8333 -0.6054 175.2285 434.7549)" font-family="'Herculanum'" font-size="48">
      p
    </text>
    <text transform="matrix(-0.6157 -0.788 0.788 -0.6157 160.2988 408.96)" font-family="'Herculanum'" font-size="36" letter-spacing="3">
      l
    </text>
    <text transform="matrix(-0.6157 -0.788 0.788 -0.6157 149.3052 389.3623)" font-family="'Herculanum'" font-size="36">
      o
    </text>
    <text transform="matrix(-0.6157 -0.788 0.788 -0.6157 135.4062 366.3096)" font-family="'Herculanum'" font-size="40">
      s
    </text>
    <text transform="matrix(-0.3907 -0.9205 0.9205 -0.3907 125.5918 353.3994)" font-family="'Herculanum'" font-size="48" letter-spacing="6">
      i
    </text>
    <text transform="matrix(-0.3256 -0.9455 0.9455 -0.3256 120.3428 329.7197)" font-family="'Herculanum'" font-size="42" letter-spacing="7">
      v
    </text>
    <text transform="matrix(-0.3907 -0.9205 1.0126 -0.4298 105.0249 298.6689)" font-family="'Herculanum'" font-size="48" letter-spacing="7">
      e
    </text>
  </g>
</svg>
